# xmcd CD database file
# 
# Track frame offsets:
# 	150
# 	18415
# 	32695
# 	49178
# 	67405
# 	83230
# 	95895
# 	112200
# 	128478
# 	144580
# 	163605
# 	180080
# 	195250
# 
# Disc length: 2819 seconds
# 
# Submitted via: Nero 6, 6, 1, 15
# 
# Revision: 0
# Processed by: cddbd v1.5.2PL0 Copyright (c) Steve Scherf et al.
#
DISCID=b00b010d
DTITLE=John Denver - Wingsong[John Denver]
DYEAR=1900
DGENRE=
TTITLE0=Windsong
TTITLE1=Cowboy's Delight
TTITLE2=Spirit
TTITLE3=Looking For Space
TTITLE4=Shipmates And Cheyenne
TTITLE5=Late Nite Radio
TTITLE6=Love Is Everywhere
TTITLE7=Two Shots
TTITLE8=I'm Sorry
TTITLE9=Fly Away
TTITLE10=Calypso
TTITLE11=Song Of Wyoming
TTITLE12=Spirit (live ver.)
EXTD=
EXTT0=
EXTT1=
EXTT2=
EXTT3=
EXTT4=
EXTT5=
EXTT6=
EXTT7=
EXTT8=
EXTT9=
EXTT10=
EXTT11=
EXTT12=
PLAYORDER=
